<svg width="24" height="25" viewBox="0 0 24 25" fill="none" xmlns="http://www.w3.org/2000/svg">
<path d="M22.7742 19.4829C22.3742 20.3563 21.9007 21.1603 21.3521 21.8995C20.6042 22.9071 19.9919 23.6047 19.52 23.992C18.7885 24.6278 18.0048 24.9534 17.1655 24.9719C16.563 24.9719 15.8364 24.8099 14.9906 24.4812C14.142 24.154 13.3622 23.992 12.6491 23.992C11.9013 23.992 11.0992 24.154 10.2413 24.4812C9.38215 24.8099 8.69 24.9812 8.1608 24.9981C7.35598 25.0305 6.55377 24.6957 5.75303 23.992C5.24196 23.5707 4.60271 22.8485 3.83692 21.8254C3.01528 20.7328 2.33978 19.4659 1.81058 18.0215C1.24383 16.4613 0.959717 14.9506 0.959717 13.488C0.959717 11.8126 1.34278 10.3676 2.11004 9.15663C2.71304 8.18397 3.51525 7.41671 4.51927 6.85346C5.5233 6.2902 6.60815 6.00318 7.77643 5.98481C8.41568 5.98481 9.25397 6.17169 10.2957 6.53896C11.3345 6.90747 12.0015 7.09435 12.294 7.09435C12.5126 7.09435 13.2536 6.87583 14.5097 6.4402C15.6976 6.0362 16.7001 5.86892 17.5215 5.93481C19.747 6.10456 21.419 6.9337 22.531 8.42749C20.5405 9.56727 19.556 11.1637 19.5755 13.2116C19.5935 14.8068 20.2058 16.1342 21.4092 17.1882C21.9546 17.6774 22.5636 18.0554 23.2412 18.3239C23.0943 18.7267 22.9392 19.1125 22.7742 19.4829V19.4829ZM17.67 0.50041C17.67 1.7507 17.1867 2.91808 16.2234 3.99861C15.0608 5.28314 13.6546 6.0254 12.1297 5.90827C12.1103 5.75828 12.099 5.60041 12.099 5.43452C12.099 4.23425 12.6519 2.94972 13.6337 1.89944C14.1239 1.36767 14.7473 0.925505 15.5033 0.572783C16.2576 0.225324 16.9712 0.0331723 17.6423 0.000267029C17.6619 0.167411 17.67 0.334565 17.67 0.500393V0.50041Z" fill="black"/>
</svg>
